<mxfile host="app.diagrams.net" modified="2023-11-07T14:50:22.038Z" agent="Mozilla/5.0 (X11; Linux x86_64) AppleWebKit/537.36 (KHTML, like Gecko) Chrome/118.0.0.0 Safari/537.36" etag="tzGA5LWrcVYZ6QUFCM9d" version="22.0.8" type="google">
  <diagram id="wzXIFHqy3PS0qOBFmNbU" name="002-semantic-translation-decentralized">
    <mxGraphModel grid="1" page="1" gridSize="10" guides="1" tooltips="1" connect="1" arrows="1" fold="1" pageScale="1" pageWidth="827" pageHeight="1169" math="0" shadow="0">
      <root>
        <mxCell id="0" />
        <mxCell id="1" parent="0" />
        <mxCell id="Au9wXlIIRqk7qSvar-bu-4" value="" style="rounded=0;whiteSpace=wrap;html=1;sketch=1;curveFitting=1;jiggle=2;" vertex="1" parent="1">
          <mxGeometry x="90" y="120" width="270" height="130" as="geometry" />
        </mxCell>
        <mxCell id="Au9wXlIIRqk7qSvar-bu-5" value="Data" style="shape=cylinder3;whiteSpace=wrap;html=1;boundedLbl=1;backgroundOutline=1;size=15;sketch=1;curveFitting=1;jiggle=2;shadow=1;" vertex="1" parent="1">
          <mxGeometry x="130" y="145" width="60" height="80" as="geometry" />
        </mxCell>
        <mxCell id="Au9wXlIIRqk7qSvar-bu-21" style="edgeStyle=orthogonalEdgeStyle;rounded=0;orthogonalLoop=1;jettySize=auto;html=1;entryX=0;entryY=0.25;entryDx=0;entryDy=0;sketch=1;curveFitting=1;jiggle=2;" edge="1" parent="1" target="Au9wXlIIRqk7qSvar-bu-12">
          <mxGeometry relative="1" as="geometry">
            <mxPoint x="360" y="190" as="sourcePoint" />
          </mxGeometry>
        </mxCell>
        <mxCell id="Au9wXlIIRqk7qSvar-bu-6" value="&lt;b&gt;Domain semantics&lt;/b&gt;" style="shape=document;whiteSpace=wrap;html=1;boundedLbl=1;shadow=1;sketch=1;curveFitting=1;jiggle=2;fillColor=#ffe6cc;strokeColor=#d79b00;" vertex="1" parent="1">
          <mxGeometry x="220" y="150" width="120" height="80" as="geometry" />
        </mxCell>
        <mxCell id="Au9wXlIIRqk7qSvar-bu-23" style="edgeStyle=orthogonalEdgeStyle;rounded=0;orthogonalLoop=1;jettySize=auto;html=1;entryX=0;entryY=0.654;entryDx=0;entryDy=0;entryPerimeter=0;" edge="1" parent="1" source="Au9wXlIIRqk7qSvar-bu-7" target="Au9wXlIIRqk7qSvar-bu-12">
          <mxGeometry relative="1" as="geometry" />
        </mxCell>
        <mxCell id="Au9wXlIIRqk7qSvar-bu-7" value="" style="rounded=0;whiteSpace=wrap;html=1;sketch=1;curveFitting=1;jiggle=2;" vertex="1" parent="1">
          <mxGeometry x="90" y="310" width="270" height="130" as="geometry" />
        </mxCell>
        <mxCell id="Au9wXlIIRqk7qSvar-bu-8" value="Data" style="shape=cylinder3;whiteSpace=wrap;html=1;boundedLbl=1;backgroundOutline=1;size=15;sketch=1;curveFitting=1;jiggle=2;shadow=1;" vertex="1" parent="1">
          <mxGeometry x="130" y="335" width="60" height="80" as="geometry" />
        </mxCell>
        <mxCell id="Au9wXlIIRqk7qSvar-bu-9" value="&lt;b&gt;Domain semantics&lt;/b&gt;" style="shape=document;whiteSpace=wrap;html=1;boundedLbl=1;shadow=1;sketch=1;curveFitting=1;jiggle=2;fillColor=#ffe6cc;strokeColor=#d79b00;" vertex="1" parent="1">
          <mxGeometry x="220" y="340" width="120" height="80" as="geometry" />
        </mxCell>
        <mxCell id="Au9wXlIIRqk7qSvar-bu-12" value="" style="rounded=0;whiteSpace=wrap;html=1;sketch=1;curveFitting=1;jiggle=2;" vertex="1" parent="1">
          <mxGeometry x="440" y="225" width="270" height="130" as="geometry" />
        </mxCell>
        <mxCell id="Au9wXlIIRqk7qSvar-bu-13" value="Data" style="shape=cylinder3;whiteSpace=wrap;html=1;boundedLbl=1;backgroundOutline=1;size=15;sketch=1;curveFitting=1;jiggle=2;shadow=1;" vertex="1" parent="1">
          <mxGeometry x="620" y="250" width="60" height="80" as="geometry" />
        </mxCell>
        <mxCell id="Au9wXlIIRqk7qSvar-bu-14" value="&lt;b&gt;Unified semantics&lt;/b&gt;" style="shape=document;whiteSpace=wrap;html=1;boundedLbl=1;shadow=1;sketch=1;curveFitting=1;jiggle=2;fillColor=#ffe6cc;strokeColor=#d79b00;" vertex="1" parent="1">
          <mxGeometry x="470" y="255" width="120" height="80" as="geometry" />
        </mxCell>
        <mxCell id="Au9wXlIIRqk7qSvar-bu-15" value="" style="shape=image;html=1;verticalLabelPosition=bottom;verticalAlign=top;imageAspect=1;aspect=fixed;image=img/clipart/Gear_128x128.png" vertex="1" parent="1">
          <mxGeometry x="450" y="300" width="42.63" height="50" as="geometry" />
        </mxCell>
        <mxCell id="Au9wXlIIRqk7qSvar-bu-16" value="&lt;b&gt;Data Producer&lt;/b&gt;" style="text;html=1;strokeColor=none;fillColor=none;align=center;verticalAlign=middle;whiteSpace=wrap;rounded=0;" vertex="1" parent="1">
          <mxGeometry x="90" y="80" width="270" height="30" as="geometry" />
        </mxCell>
        <mxCell id="Au9wXlIIRqk7qSvar-bu-17" value="&lt;b&gt;Data Producer&lt;/b&gt;" style="text;html=1;strokeColor=none;fillColor=none;align=center;verticalAlign=middle;whiteSpace=wrap;rounded=0;" vertex="1" parent="1">
          <mxGeometry x="90" y="270" width="270" height="30" as="geometry" />
        </mxCell>
        <mxCell id="Au9wXlIIRqk7qSvar-bu-18" value="&lt;b&gt;Data Consumer&lt;/b&gt;" style="text;html=1;strokeColor=none;fillColor=none;align=center;verticalAlign=middle;whiteSpace=wrap;rounded=0;" vertex="1" parent="1">
          <mxGeometry x="440" y="190" width="270" height="30" as="geometry" />
        </mxCell>
        <mxCell id="u_F78790gXBhjAp2AuaB-1" value="Decentralized&amp;nbsp;semantic translation" style="text;strokeColor=none;fillColor=none;html=1;fontSize=24;fontStyle=1;verticalAlign=middle;align=center;" vertex="1" parent="1">
          <mxGeometry x="90" y="20" width="630" height="40" as="geometry" />
        </mxCell>
        <mxCell id="Rhu6VHliJGTWFr9HE4f3-1" value="&lt;div&gt;&lt;i&gt;This work is licensed under a&lt;/i&gt;&lt;/div&gt;&lt;div&gt;&lt;b&gt;&lt;i&gt;Creative Commons Attribution 4.0 International License&lt;/i&gt;&lt;/b&gt;&lt;/div&gt;" style="text;html=1;strokeColor=none;fillColor=none;align=center;verticalAlign=middle;whiteSpace=wrap;rounded=0;fontSize=20;fontFamily=Architects Daughter;" vertex="1" parent="1">
          <mxGeometry x="90" y="477" width="680" height="60" as="geometry" />
        </mxCell>
      </root>
    </mxGraphModel>
  </diagram>
</mxfile>
